<?xml version="1.0" encoding="utf-8"?>
<!-- Generator: Adobe Illustrator 22.1.0, SVG Export Plug-In . SVG Version: 6.00 Build 0)  -->
<svg version="1.1" id="Layer_1" xmlns="http://www.w3.org/2000/svg" xmlns:xlink="http://www.w3.org/1999/xlink" x="0px" y="0px"
	 viewBox="0 0 333 333" style="enable-background:new 0 0 333 333;" xml:space="preserve">
<g>
	<path d="M154,271.7c0,0-59-27-116-25v-169h13v152C51,229.7,113,235.7,154,271.7z M161,262.7c0,0-48-43-98-43l1-171c0,0,53,8,97,50
		V262.7z M175,262.7l1-164c44-42,97-50,97-50l1,171C223,219.7,175,262.7,175,262.7z M283,230.7v-153h14v169c-58-2-117,25-117,25
		C222,235.7,283,230.7,283,230.7z M51,65.7H26v25H13v186c0,0,105-2,144,19c0,0,10,6,24,0c0,0,40-26,142-18v-182h-14v-29h-26v-32
		c0,0-70,7-117,53c0,0-51-53-115-52V65.7z"/>
</g>
<g>
	<path d="M154,271.7c0,0-59-27-116-25v-169h13v152C51,229.7,113,235.7,154,271.7z M161,262.7c0,0-48-43-98-43l1-171c0,0,53,8,97,50
		V262.7z M175,262.7l1-164c44-42,97-50,97-50l1,171C223,219.7,175,262.7,175,262.7z M283,230.7v-153h14v169c-58-2-117,25-117,25
		C222,235.7,283,230.7,283,230.7z M51,65.7H26v25H13v186c0,0,105-2,144,19c0,0,10,6,24,0c0,0,40-26,142-18v-182h-14v-29h-26v-32
		c0,0-70,7-117,53c0,0-51-53-115-52V65.7z"/>
</g>
</svg>
