<?xml version="1.0" encoding="utf-8"?>
<!-- Generator: Adobe Illustrator 22.1.0, SVG Export Plug-In . SVG Version: 6.00 Build 0)  -->
<svg version="1.1" id="Layer_1" xmlns="http://www.w3.org/2000/svg" xmlns:xlink="http://www.w3.org/1999/xlink" x="0px" y="0px"
	 viewBox="0 0 64 64" style="enable-background:new 0 0 64 64;" xml:space="preserve">
<title>broom, clear</title>
<g>
	<path d="M56,6c-0.5-1.2-1.5-2.1-2.7-2.6c-2.5-1-5.3,0.2-6.3,2.7c0,0,0,0,0,0l-8,20.2c-2.3-0.7-4.8,0.2-6.3,2.1l-3,4.1
		C25,36.4,19.3,39,13.3,40.1c-0.8,0.1-1.4,0.9-1.3,1.7c0.1,0.4,0.3,0.8,0.7,1.1c13,8.8,20.8,13.1,25.6,15.1c0.2,0.1,0.4,0.2,0.6,0.2
		c1.6,0.7,3.3,1.2,5.1,1.3c0.9,0.1,1.7-0.3,2.2-1c5.6-9,4.6-16.3,4.3-17.8l0.6-4.9c0.3-2.4-1-4.8-3.2-5.9l8-20.2
		C56.5,8.5,56.5,7.1,56,6z M43.8,56.6c-0.8,0-1.6-0.2-2.4-0.5c0.8-1.1,1.5-2.3,2.1-3.6c0.4-0.7,0.1-1.6-0.6-2
		c-0.7-0.4-1.6-0.1-2,0.6c0,0.1-0.1,0.1-0.1,0.2c-0.6,1.3-1.3,2.5-2.1,3.6c-0.9-0.4-1.8-0.9-2.8-1.4c1.8-1.8,3.2-4,4.3-6.3
		c0.3-0.8-0.1-1.6-0.8-2s-1.6,0.1-2,0.8c-1,2.2-2.4,4.2-4.2,5.9c-2.5-1.4-5.3-3-8.2-4.8c2.4-1.3,4.7-2.8,6.9-4.5
		c0.6-0.5,0.7-1.5,0.2-2.1c-0.5-0.6-1.5-0.7-2.1-0.2c-2.5,1.9-5.1,3.5-7.9,5c-1.6-1-3.1-2-4.7-3c5-1.4,9.7-3.8,13.8-7.1l16.5,6.5
		C47.9,43.8,48.1,49.5,43.8,56.6z M48.2,35.3l-0.4,3.3l-14.6-5.7l1.9-2.6c0.7-1.1,2.1-1.5,3.3-1l0.9,0.4l0,0l6.2,2.5l0,0l0.9,0.3
		C47.6,32.8,48.3,34,48.2,35.3z M53.2,8.5l-8,20.1l-3.3-1.4l8-20.1c0.4-0.9,1.5-1.4,2.4-1C53.2,6.6,53.6,7.6,53.2,8.5L53.2,8.5z
		 M21.8,54.6c-0.5,0.7-1.4,0.8-2.1,0.4c0,0,0,0,0,0c-0.1-0.1-3.4-2.4-6.6-0.7c-0.7,0.4-1.6,0.2-2.1-0.5s-0.2-1.6,0.5-2.1
		c0,0,0.1,0,0.1-0.1c4.9-2.6,9.6,0.8,9.8,0.9C22.1,53,22.3,54,21.8,54.6z M13.4,49.7l-4.7-1.2c-0.8-0.2-1.3-1-1.1-1.8
		c0.2-0.8,1-1.3,1.8-1.1l4.7,1.2c0.8,0.1,1.4,0.9,1.3,1.7c-0.1,0.8-0.9,1.4-1.7,1.3C13.7,49.8,13.6,49.8,13.4,49.7z"/>
</g>
</svg>
