<?xml version="1.0" encoding="utf-8"?>
<!-- Generator: Adobe Illustrator 22.1.0, SVG Export Plug-In . SVG Version: 6.00 Build 0)  -->
<svg version="1.1" id="Layer_1" xmlns="http://www.w3.org/2000/svg" xmlns:xlink="http://www.w3.org/1999/xlink" x="0px" y="0px"
	 viewBox="0 0 120 120" style="enable-background:new 0 0 120 120;" xml:space="preserve">
<title>350 Chat</title>
<g>
	<path d="M103.9,36h-9.1v-9.1c0-3.3-2.7-6-6.1-6.1H16.1c-3.3,0-6,2.7-6.1,6.1v42.4c0,3.3,2.7,6,6.1,6.1h9.1v9.1c0,3.3,2.7,6,6.1,6.1
		h6.1v13.1L57,90.6h47c3.3,0,6-2.7,6-6.1V42.1C110,38.7,107.3,36,103.9,36z M25.1,42.1v27.3h-6.1c-1.7,0-3-1.3-3-3V29.9
		c0-1.7,1.3-3,3-3h66.7c1.7,0,3,1.3,3,3V36H31.2C27.9,36,25.2,38.7,25.1,42.1z M103.9,81.7c0,1.5-1.2,2.8-2.8,2.8H56
		c-0.5,0-1.1,0.2-1.5,0.4l-6.8,4.6c-1.3,0.9-3,0.5-3.8-0.7c-0.3-0.5-0.5-1-0.5-1.5c0-1.5-1.2-2.8-2.8-2.8H34c-1.5,0-2.8-1.2-2.8-2.8
		V44.8c0-1.5,1.2-2.8,2.8-2.8h67.2c1.5,0,2.8,1.2,2.8,2.8L103.9,81.7z"/>
</g>
</svg>
