<?xml version="1.0" encoding="utf-8"?>
<!-- Generator: Adobe Illustrator 22.1.0, SVG Export Plug-In . SVG Version: 6.00 Build 0)  -->
<svg version="1.1" id="Layer_1" xmlns="http://www.w3.org/2000/svg" xmlns:xlink="http://www.w3.org/1999/xlink" x="0px" y="0px"
	 viewBox="0 0 64 64" style="enable-background:new 0 0 64 64;" xml:space="preserve">
<title>donation, charity, humanity</title>
<g>
	<path d="M35.5,13.1v-2.5c0-0.6,0.4-1,1-1s1,0.4,1,1v2.5c0,0.6-0.4,1-1,1S35.5,13.6,35.5,13.1z M41.1,15.9c0.2,0,0.5-0.1,0.7-0.3
		l2-1.8c0.4-0.4,0.4-1,0.1-1.4s-1-0.4-1.4-0.1l-2,1.8c-0.4,0.4-0.4,1-0.1,1.4C40.5,15.8,40.8,15.9,41.1,15.9z M42,19.2
		c0,0.6,0.4,1,1,1h2.1c0.6,0,1-0.4,1-1s-0.4-1-1-1H43C42.5,18.2,42,18.7,42,19.2z M56.6,48.3v7.1c0,0.6-0.4,1-1,1s-1-0.4-1-1v-6.1
		H34.9c0,0-0.1,0-0.1,0H15.1v6.1c0,0.6-0.4,1-1,1s-1-0.4-1-1v-7.1c0,0,0,0,0,0c0-0.1,0-0.2,0.1-0.3c0,0,0,0,0,0
		c0-0.1,0.1-0.1,0.1-0.2l6.4-8.2c0.2-0.2,0.5-0.4,0.8-0.4h10.5c-1.9-1.7-3.2-4-3.7-6.5c-1.4-0.5-2.9-0.9-4.4-1.2
		c-2.7-0.4-3.9-2.5-5-4.3c-0.3-0.6-0.6-1.1-1-1.6l-0.7,0.9c-0.3,0.4-0.9,0.5-1.3,0.2l-7-4.6c-0.4-0.3-0.5-0.9-0.2-1.4
		c0.3-0.4,0.9-0.5,1.3-0.3l6.2,4.1l5.9-7.8l-9.9-7.4c-0.4-0.3-0.5-1-0.2-1.4c0.3-0.4,1-0.5,1.4-0.2c0,0,0,0,0,0l10.7,8
		c0.4,0.3,0.5,1,0.2,1.4l0,0l-0.4,0.6c3.3,0.6,6.5,1.4,9.6,2.4l0.6,0.2c3.2,1.1,6.2,2.3,6.9,5.9c1.3-1,3-1.5,4.6-1.5
		c3.6,0.1,6.5,3.1,6.5,6.8c0,0,0,0.1,0,0.1c0,1.7-0.6,4.5-3.7,7.5h1.9c0.3,0,0.6,0.1,0.8,0.4l6.4,8.2c0,0.1,0.1,0.1,0.1,0.2
		c0,0,0,0,0,0C56.6,48.1,56.6,48.2,56.6,48.3C56.6,48.3,56.6,48.3,56.6,48.3z M23.2,29.6c1.8,0.3,3.6,0.8,5.4,1.5l0,0
		c1.3,0.5,2.7,1.1,3.9,1.8c0.3,0.2,0.7,0.1,0.9-0.2c0.2-0.3,0.1-0.6-0.2-0.8c-2.4-1.5-6-3.3-6-3.3c-0.5-0.2-0.7-0.8-0.5-1.3
		c0.2-0.5,0.8-0.7,1.3-0.5l0,0c0,0,0.3,0.2,0.8,0.4c1.2-1.5,3-2.4,4.9-2.3c1.5,0,2.9,0.4,4.1,1.2c-0.7-1.9-2.5-2.6-5.4-3.7L31.8,22
		c-3.4-1.1-6.8-1.9-10.3-2.5L18.1,24c0.5,0.7,1,1.4,1.5,2.2C20.6,27.9,21.4,29.3,23.2,29.6z M29.5,33.6c0.8,2.3,3.1,5.5,9.6,8.7
		c6.3-3.1,9.9-7,9.9-10.7c0.2-2.5-1.7-4.7-4.3-4.9c-0.1,0-0.1,0-0.2,0c-1.8,0-3.5,0.8-4.6,2.2c-0.2,0.3-0.5,0.4-0.8,0.4
		c-0.3,0-0.6-0.2-0.8-0.4c-1.1-1.4-2.8-2.2-4.6-2.2c-1.2,0-2.3,0.5-3.1,1.3c1.2,0.6,2.5,1.4,3.6,2c1.2,0.8,1.6,2.4,0.8,3.6
		c-0.7,1.2-2.3,1.6-3.5,0.9C30.8,34.3,30.2,33.9,29.5,33.6z M53.6,47.3l-4.8-6.2h-3.8c-0.9,0.6-1.8,1.2-2.7,1.7h1.4c0.6,0,1,0.4,1,1
		s-0.4,1-1,1H26.1c-0.6,0-1-0.4-1-1s0.4-1,1-1H36c-0.9-0.5-1.9-1.1-2.7-1.8c-0.1,0-0.1,0-0.2,0H21l-4.8,6.2h18.6c0,0,0.1,0,0.1,0
		L53.6,47.3z M46.3,51.2c-0.4-0.4-1-0.4-1.4,0c-0.1,0.1-0.2,0.2-0.2,0.3c-0.1,0.1-0.1,0.2-0.1,0.4c0,0.6,0.4,1,1,1s1-0.4,1-1
		c0-0.1,0-0.3-0.1-0.4C46.5,51.4,46.4,51.3,46.3,51.2z M49.4,51c-0.1,0-0.1-0.1-0.2-0.1c-0.1,0-0.1,0-0.2-0.1
		c-0.5-0.1-1.1,0.2-1.2,0.8c-0.1,0.5,0.2,1.1,0.8,1.2c0.1,0,0.1,0,0.2,0c0.1,0,0.1,0,0.2,0c0.1,0,0.1,0,0.2-0.1
		c0.1,0,0.1-0.1,0.2-0.1l0.2-0.1c0.2-0.2,0.3-0.4,0.3-0.7c0-0.3-0.1-0.5-0.3-0.7C49.5,51.1,49.5,51.1,49.4,51z M52.8,51.2
		c-0.4-0.4-1-0.4-1.4,0c-0.1,0.1-0.2,0.2-0.2,0.3c-0.1,0.1-0.1,0.2-0.1,0.4c0,0.6,0.4,1,1,1s1-0.4,1-1c0-0.1,0-0.3-0.1-0.4
		C53,51.4,52.9,51.3,52.8,51.2z"/>
</g>
</svg>
