<?xml version="1.0" encoding="utf-8"?>
<!-- Generator: Adobe Illustrator 22.1.0, SVG Export Plug-In . SVG Version: 6.00 Build 0)  -->
<svg version="1.1"
	 id="Layer_1" xmlns:cc="http://creativecommons.org/ns#" xmlns:dc="http://purl.org/dc/elements/1.1/" xmlns:inkscape="http://www.inkscape.org/namespaces/inkscape" xmlns:rdf="http://www.w3.org/1999/02/22-rdf-syntax-ns#" xmlns:sodipodi="http://sodipodi.sourceforge.net/DTD/sodipodi-0.dtd" xmlns:svg="http://www.w3.org/2000/svg"
	 xmlns="http://www.w3.org/2000/svg" xmlns:xlink="http://www.w3.org/1999/xlink" x="0px" y="0px" viewBox="0 0 100 100"
	 style="enable-background:new 0 0 100 100;" xml:space="preserve">
<g transform="translate(0,-952.36218)">
	<path d="M29,978c-2.8,0-5,2.2-5,5v42c0,2.8,2.2,5,5,5h4c2.8,0,5-2.2,5-5v-42c0-2.8-2.2-5-5-5H29z M67,978c-2.8,0-5,2.2-5,5v42
		c0,2.8,2.2,5,5,5h4c2.8,0,5-2.2,5-5v-42c0-2.8-2.2-5-5-5H67z M20,984c-3.3,0-6,2.7-6,6v28c0,3.3,2.7,6,6,6h2v-40H20z M78,984v40h2
		c3.3,0,6-2.7,6-6v-28c0-3.3-2.7-6-6-6H78z M8,999c-0.6,0-1,0.4-1,1v8c0,0.6,0.4,1,1,1h4v-10H8z M40,999v10h20v-10H40z M88,999v10h4
		c0.6,0,1-0.4,1-1v-8c0-0.6-0.4-1-1-1H88z"/>
</g>
</svg>
