<?xml version="1.0" encoding="utf-8"?>
<!-- Generator: Adobe Illustrator 22.1.0, SVG Export Plug-In . SVG Version: 6.00 Build 0)  -->
<svg version="1.1"
	 id="Layer_1" xmlns:cc="http://creativecommons.org/ns#" xmlns:dc="http://purl.org/dc/elements/1.1/" xmlns:inkscape="http://www.inkscape.org/namespaces/inkscape" xmlns:rdf="http://www.w3.org/1999/02/22-rdf-syntax-ns#" xmlns:sodipodi="http://sodipodi.sourceforge.net/DTD/sodipodi-0.dtd" xmlns:svg="http://www.w3.org/2000/svg"
	 xmlns="http://www.w3.org/2000/svg" xmlns:xlink="http://www.w3.org/1999/xlink" x="0px" y="0px" viewBox="0 0 100 100"
	 style="enable-background:new 0 0 100 100;" xml:space="preserve">
<g transform="translate(0,-952.36218)">
	<path d="M12,967.4c-3.8,0-7,3.2-7,7v60c0,1.6,1.4,3,3,3h84c1.6,0,3-1.4,3-3v-60c0-3.8-3.2-7-7-7H12z M12,973.4h76c0.6,0,1,0.4,1,1
		v7H11v-7C11,973.8,11.4,973.4,12,973.4z M16,974.4c-1.7,0-3,1.3-3,3s1.3,3,3,3h18c1.7,0,3-1.3,3-3s-1.3-3-3-3H16z M11,987.4h78v44
		H11V987.4z M48.9,990.5l-28,11c-1.1,0.4-1.9,1.6-1.9,2.8s0.8,2.4,1.9,2.8l8.1,3.2v9c0,2.1,1.3,3.5,2.6,4.5c1.3,1,2.8,1.7,4.7,2.4
		c3.7,1.3,8.4,2.2,13.8,2.2s10.1-0.9,13.8-2.2c1.8-0.7,3.4-1.4,4.7-2.4c1.3-1,2.6-2.3,2.6-4.5v-9l8.1-3.2c1.1-0.4,1.9-1.6,1.9-2.8
		s-0.8-2.4-1.9-2.8l-28-11C50.4,990.2,49.6,990.2,48.9,990.5z M50,996.6l19.8,7.8l-19.8,7.8l-19.8-7.8L50,996.6z M35,1012.7
		l13.9,5.5c0.7,0.3,1.5,0.3,2.2,0l13.9-5.5v6.2c0,0,0,0-0.2,0.2c-0.5,0.4-1.6,1-3,1.5c-2.8,1-7.1,1.8-11.8,1.8s-8.9-0.8-11.8-1.8
		c-1.4-0.5-2.5-1.1-3-1.5c-0.2-0.1-0.2-0.1-0.2-0.2V1012.7z"/>
</g>
</svg>
