<?xml version="1.0" encoding="utf-8"?>
<!-- Generator: Adobe Illustrator 22.1.0, SVG Export Plug-In . SVG Version: 6.00 Build 0)  -->
<svg version="1.1" id="Layer_1" xmlns="http://www.w3.org/2000/svg" xmlns:xlink="http://www.w3.org/1999/xlink" x="0px" y="0px"
	 viewBox="0 0 32 32" style="enable-background:new 0 0 32 32;" xml:space="preserve">
<g>
	<g>
		<path d="M25.4,12.5c0-0.1,0-0.3-0.1-0.4c-0.1-1.1-0.9-2-1.9-2.2c0,0,0-0.1,0-0.1c0-0.6-0.2-1.3-0.4-1.8c-0.4-0.8-1.2-1.3-1.9-1.3
			c-0.6-0.8-1.7-1.2-2.6-0.9c-0.4-1.3-1.4-2.2-2.6-2.2c-1.2,0-2.2,0.9-2.6,2.2c-1.1-0.4-2.3,0.3-2.8,1.6c-0.4-0.4-1-0.7-1.6-0.7
			c-1.3,0-2.4,1.1-2.4,2.6c0,0.2,0,0.5,0.1,0.7c-0.6,0.3-1,0.8-1,1.4c0,0.7,0.5,1.2,1.1,1.5l1,8.5l0.7,5.7c0,0.1,0,0.2,0.1,0.3
			c0.4,0.6,1.3,1,2.3,1.4c0.1,0.1,0.2,0.1,0.3,0.1c0,0,0,0,0,0c1.5,0.4,3.3,0.6,5,0.6s3.5-0.2,5-0.6c0,0,0,0,0,0
			c0.1,0,0.2,0,0.3-0.1c1.1-0.3,1.9-0.8,2.3-1.4c0.1-0.1,0.1-0.2,0.1-0.3l0.7-5.8L25.4,12.5z M24.3,13.7L23.4,21
			c-1.6,0.7-4.4,1.2-7.4,1.2s-5.8-0.5-7.4-1.2l-0.9-7.3c0,0,0.1,0,0.1,0c0.4,0.2,0.9,0.4,1.4,0.6c0.1,0,0.2,0,0.2,0.1
			c0.2,0.1,0.4,0.1,0.6,0.2c0.1,0,0.1,0,0.2,0.1c0.2,0.1,0.5,0.1,0.7,0.2c0.5,0.1,1,0.2,1.5,0.2c0,0,0,0,0.1,0l0,0h6.9h0.2
			c0.1,0,0.1,0,0.2,0c0,0,0,0,0,0c0.4-0.1,0.8-0.1,1.2-0.2c0.1,0,0.2,0,0.3-0.1c0.3-0.1,0.5-0.1,0.8-0.2c0.1,0,0.2-0.1,0.3-0.1
			c0.3-0.1,0.6-0.2,0.8-0.3c0.1-0.1,0.3-0.1,0.4-0.2c0.1-0.1,0.2-0.1,0.4-0.2C24.1,13.8,24.2,13.7,24.3,13.7z M22.7,27
			c-0.2,0.2-0.6,0.5-1.2,0.7v-5.1c0.7-0.1,1.2-0.3,1.8-0.5L22.7,27z M8.8,22.2c0.5,0.2,1.1,0.4,1.8,0.5v5.1c-0.6-0.2-1-0.5-1.2-0.7
			L8.8,22.2z M11.5,22.9c1.2,0.2,2.6,0.3,4.1,0.3c0,0.1-0.1,0.2-0.1,0.2v5.1c-1.6,0-2.9-0.2-4-0.5V22.9z M16.5,23.2
			c1.5,0,2.8-0.1,4.1-0.3V28c-1.1,0.3-2.4,0.5-4,0.5v-5.1C16.5,23.4,16.5,23.3,16.5,23.2z M11.5,13.7c0-0.7,0.4-1.3,1-1.3
			c0.1,0,0.2,0,0.3,0.1c0.2,0.1,0.3,0.1,0.5,0c0.2-0.1,0.2-0.3,0.2-0.4V12c0-1,0.7-1.8,1.5-1.8c0.6,0,1.2,0.5,1.4,1.2
			c0,0.2,0.2,0.3,0.3,0.3c0.2,0.1,0.3,0,0.5-0.1c0.2-0.2,0.5-0.3,0.8-0.3c0.8,0,1.5,0.8,1.5,1.8c0,0.3-0.1,0.6-0.2,0.9h-6.8
			c-0.4,0-0.7-0.1-1.1-0.2C11.5,13.8,11.5,13.8,11.5,13.7z M7.3,10.9c0.2,0,0.3-0.1,0.4-0.3c0.1-0.1,0.1-0.3,0-0.5
			C7.6,9.9,7.5,9.6,7.5,9.3c0-0.9,0.6-1.6,1.4-1.6c0.5,0,0.9,0.3,1.2,0.8c0.1,0.2,0.3,0.3,0.4,0.3h0.3c0.2,0,0.5-0.2,0.5-0.4
			c0.2-1.3,1.2-2.1,2-1.4c0.1,0.1,0.3,0.1,0.5,0.1C14,7,14.1,6.9,14.1,6.7c0.2-1.2,0.9-2,1.8-2c0.8,0,1.6,0.8,1.8,2
			C17.8,6.8,17.9,7,18,7c0.2,0.1,0.3,0,0.5-0.1c0.6-0.4,1.5-0.2,1.9,0.5c0.1,0.2,0.3,0.3,0.5,0.3c0,0,0.1,0,0.2,0
			c0.4,0,0.8,0.3,1.1,0.8c0.2,0.4,0.3,0.8,0.3,1.3c0,0.2,0,0.3,0,0.5c0,0.1,0,0.3,0.1,0.4c0.1,0.1,0.2,0.2,0.4,0.2
			c0.7,0,1.3,0.7,1.4,1.5c0,0,0,0-0.1,0.1c0,0-0.1,0.1-0.1,0.1c0,0-0.1,0.1-0.2,0.1c0,0-0.1,0.1-0.2,0.1c-0.1,0-0.1,0.1-0.2,0.1
			c-0.1,0-0.1,0.1-0.2,0.1c-0.1,0-0.2,0.1-0.3,0.1c-0.1,0-0.1,0.1-0.2,0.1c-0.1,0-0.2,0.1-0.4,0.1c-0.1,0-0.2,0.1-0.3,0.1
			c-0.1,0-0.3,0.1-0.5,0.1c-0.1,0-0.2,0.1-0.3,0.1c-0.2,0-0.4,0.1-0.6,0.1c-0.1,0-0.2,0-0.3,0.1c-0.1,0-0.1,0-0.2,0
			c0.1-0.2,0.1-0.5,0.1-0.7c0-1.6-1.1-2.8-2.5-2.8c-0.3,0-0.6,0.1-0.9,0.2c-0.4-0.8-1.2-1.3-2.1-1.3c-1.2,0-2.3,1-2.5,2.3
			c-1.1,0-2,0.9-2,2.2c-1.6-0.4-2.7-0.9-3-1.4c0-0.1-0.1-0.1-0.1-0.1c0,0,0,0-0.1,0c0,0-0.1,0-0.1-0.1c0,0,0,0-0.1,0
			c0,0-0.1,0-0.1,0c-0.3-0.1-0.6-0.3-0.6-0.6C6.6,11.2,6.9,10.9,7.3,10.9z"/>
		<path d="M19,17.6h-1.8l-0.6-1.7c-0.1-0.2-0.3-0.3-0.5-0.3c-0.2,0-0.4,0.1-0.5,0.3l-0.6,1.7h-1.8c-0.2,0-0.4,0.1-0.5,0.3
			s0,0.4,0.2,0.6l1.5,1.1l-0.6,1.7c-0.1,0.2,0,0.4,0.2,0.6c0.1,0.1,0.2,0.1,0.3,0.1s0.2,0,0.3-0.1l1.5-1.1l1.5,1.1
			c0.2,0.1,0.4,0.1,0.6,0c0.2-0.1,0.2-0.4,0.2-0.6l-0.6-1.7l1.5-1.1c0.2-0.1,0.2-0.4,0.2-0.6S19.3,17.6,19,17.6z M17,20.2l-0.5-0.4
			c-0.2-0.1-0.4-0.1-0.6,0l-0.5,0.4l0.2-0.6c0.1-0.2,0-0.4-0.2-0.6l-0.5-0.4h0.6c0.2,0,0.4-0.1,0.5-0.3l0.2-0.6l0.2,0.6
			c0.1,0.2,0.3,0.3,0.5,0.3h0.6L17,19c-0.2,0.1-0.2,0.4-0.2,0.6L17,20.2z"/>
		<circle cx="16.5" cy="8" r="1"/>
		<circle cx="9.5" cy="10" r="1"/>
		<circle cx="15.5" cy="12" r="1"/>
		<circle cx="20.5" cy="10" r="1"/>
		<circle cx="22.5" cy="12" r="1"/>
	</g>
</g>
</svg>
