<?xml version="1.0" encoding="utf-8"?>
<!-- Generator: Adobe Illustrator 22.1.0, SVG Export Plug-In . SVG Version: 6.00 Build 0)  -->
<svg version="1.1" id="Layer_1" xmlns="http://www.w3.org/2000/svg" xmlns:xlink="http://www.w3.org/1999/xlink" x="0px" y="0px"
	 viewBox="0 0 95 95" style="enable-background:new 0 0 95 95;" xml:space="preserve">
<rect x="44.5" y="21.8" width="4.1" height="11.1"/>
<rect x="5.9" y="60.4" width="11.1" height="4.1"/>
<rect x="76.1" y="60.4" width="11.1" height="4.1"/>
<rect x="19.7" y="32.1" transform="matrix(0.7071 -0.7071 0.7071 0.7071 -20.2313 26.4092)" width="4.1" height="11.1"/>
<rect x="65.8" y="35.6" transform="matrix(0.7071 -0.7071 0.7071 0.7071 -5.7016 61.485)" width="11.1" height="4.1"/>
<path d="M26.5,66c0.7-0.1,1.4-0.2,2-0.3c5.8-0.8,11.9-1.3,18.3-1.3c6.2,0,12.1,0.4,17.8,1.2c0.7,0.1,1.4,0.2,2,0.3
	c2,0.3,3.9,0.7,5.8,1.1c6.8,1.4,13,3.4,18.3,5.9v-1.1c-5.3-2.4-11.5-4.4-18.1-5.8c0.2-1.2,0.3-2.4,0.3-3.6c0-2.8-0.5-5.6-1.3-8.1
	l13.5-5.6l-1.6-3.8L70,50.5c-2.5-4.9-6.6-9-11.5-11.5l5.6-13.5l-3.8-1.6l-5.6,13.5c-2.6-0.8-5.3-1.3-8.1-1.3c-2.8,0-5.6,0.5-8.1,1.3
	l-5.6-13.5L29,25.5L34.6,39c-4.9,2.5-9,6.5-11.5,11.5L9.7,44.9l-1.6,3.8l13.5,5.6c-0.8,2.6-1.3,5.3-1.3,8.1c0,1.3,0.1,2.5,0.3,3.7
	c-6.8,1.5-12.9,3.5-18.3,6v1c5.4-2.5,11.6-4.6,18.5-6.1C22.6,66.7,24.5,66.3,26.5,66z M46.6,42C57.8,42,67,51.2,67,62.4
	c0,0.9-0.1,1.7-0.2,2.5c-0.7-0.1-1.4-0.2-2-0.3c0.1-0.7,0.1-1.5,0.1-2.2c0-10.1-8.2-18.3-18.3-18.3s-18.3,8.2-18.3,18.3
	c0,0.8,0.1,1.5,0.2,2.3c-0.7,0.1-1.4,0.2-2,0.3c-0.1-0.9-0.2-1.7-0.2-2.6C26.2,51.2,35.3,42,46.6,42z"/>
</svg>
