<?xml version="1.0" encoding="utf-8"?>
<!-- Generator: Adobe Illustrator 22.1.0, SVG Export Plug-In . SVG Version: 6.00 Build 0)  -->
<svg version="1.1" id="Layer_1" xmlns="http://www.w3.org/2000/svg" xmlns:xlink="http://www.w3.org/1999/xlink" x="0px" y="0px"
	 viewBox="0 0 32 32" style="enable-background:new 0 0 32 32;" xml:space="preserve">
<g>
	<g>
		<path d="M24.5,18c0-2.2-1.8-3.9-4-3.9c-1.3,0-2.4,0.6-3.1,1.5c-0.2,0.2-0.3,0.4-0.4,0.6c-0.3,0.5-0.4,1-0.5,1.6
			c-0.5-0.5-1.2-0.8-2-0.8c-1.7,0-3,1.3-3,3c-0.1,0-0.2,0-0.3,0c-0.2,0-0.4,0.1-0.6,0.2c-0.6,0.3-1.1,1-1.1,1.8c0,1.1,0.9,2,2,2h13
			c1.7,0,3-1.3,3-3S26.2,18,24.5,18z"/>
		<path d="M10.6,19.7C10.6,19.7,10.6,19.7,10.6,19.7c0.1,0,0.3-0.1,0.4-0.1l0-0.2c0.1-0.3,0.1-0.6,0.3-0.9c0-0.1,0.1-0.2,0.1-0.2
			c0.1-0.1,0.2-0.3,0.3-0.4c0.1-0.1,0.3-0.3,0.4-0.4l0.2-0.1c0.2-0.1,0.4-0.3,0.6-0.4c0.1,0,0.2-0.1,0.3-0.1
			c0.2-0.1,0.4-0.1,0.7-0.2c0.2,0,0.4,0,0.6,0c0.6,0,1.1,0.1,1.6,0.4c0-0.2,0.1-0.3,0.2-0.5c0-0.1,0.1-0.2,0.1-0.4
			c0,0,0-0.1,0.1-0.1c0.1-0.2,0.2-0.4,0.3-0.5c-0.5-1.7-2-3-3.9-3c-2.2,0-4,1.8-4,4C9,17.8,9.6,19,10.6,19.7z"/>
		<path d="M7.5,16.5C7.5,16.2,7.3,16,7,16H5c-0.3,0-0.5,0.2-0.5,0.5S4.7,17,5,17h2C7.3,17,7.5,16.8,7.5,16.5z"/>
		<path d="M17.2,12.7c0.1,0,0.3,0,0.4-0.1l1.4-1.4c0.2-0.2,0.2-0.5,0-0.7s-0.5-0.2-0.7,0l-1.4,1.4c-0.2,0.2-0.2,0.5,0,0.7
			C17,12.7,17.1,12.7,17.2,12.7z"/>
		<path d="M8.4,20.4L7,21.8c-0.2,0.2-0.2,0.5,0,0.7c0.1,0.1,0.2,0.1,0.4,0.1s0.3,0,0.4-0.1l1.4-1.4c0.2-0.2,0.2-0.5,0-0.7
			S8.6,20.2,8.4,20.4z"/>
		<path d="M8.4,12.6c0.1,0.1,0.2,0.1,0.4,0.1s0.3,0,0.4-0.1c0.2-0.2,0.2-0.5,0-0.7l-1.4-1.4c-0.2-0.2-0.5-0.2-0.7,0S6.8,11,7,11.2
			L8.4,12.6z"/>
		<path d="M13,11c0.3,0,0.5-0.2,0.5-0.5v-2C13.5,8.2,13.3,8,13,8s-0.5,0.2-0.5,0.5v2C12.5,10.8,12.7,11,13,11z"/>
	</g>
</g>
</svg>
