<?xml version="1.0" encoding="utf-8"?>
<!-- Generator: Adobe Illustrator 22.1.0, SVG Export Plug-In . SVG Version: 6.00 Build 0)  -->
<svg version="1.1" id="Layer_1" xmlns="http://www.w3.org/2000/svg" xmlns:xlink="http://www.w3.org/1999/xlink" x="0px" y="0px"
	 viewBox="0 0 48 48" style="enable-background:new 0 0 48 48;" xml:space="preserve">
<path d="M30.5,44.7v-7.8c0-0.3-0.2-0.5-0.5-0.5c-0.2,0-0.5,0.2-0.5,0.5v7.8c0,0.3,0.2,0.5,0.5,0.5C30.3,45.2,30.5,45,30.5,44.7z"/>
<path d="M25.1,27.7c3.4,0,6.2-2.8,6.2-6.2c0-3.4-2.8-6.2-6.2-6.2c-3.4,0-6.2,2.8-6.2,6.2C18.9,25,21.7,27.7,25.1,27.7z M25.1,16.3
	c2.9,0,5.3,2.4,5.3,5.3c0,2.9-2.4,5.3-5.3,5.3c-2.9,0-5.3-2.4-5.3-5.3C19.8,18.7,22.2,16.3,25.1,16.3z"/>
<path d="M31,28.2h-5.9c-3.7,0-6.6-3-6.6-6.6V6c0-1.8-1.5-3.2-3.2-3.2c-1.8,0-3.2,1.5-3.2,3.2v15.5c0,2,0.5,4,1.4,5.8
	c0.4,0.8,0.6,1.8,0.6,2.7v14.6c0,0.2,0.2,0.4,0.4,0.4c0.2,0,0.4-0.2,0.4-0.4V30.1c0-1.1-0.3-2.2-0.7-3.1c-0.8-1.7-1.3-3.5-1.3-5.4V6
	c0-1.3,1.1-2.3,2.3-2.3s2.3,1.1,2.3,2.3v15.5c0,4.2,3.4,7.5,7.5,7.5H31c2.3,0,4.2,1.9,4.2,4.2v11.4c0,0.3,0.2,0.5,0.4,0.5
	c0.3,0,0.5-0.2,0.5-0.5V33.3C36.1,30.5,33.8,28.2,31,28.2z"/>
</svg>
